<svg id="Layer_1" data-name="Layer 1" xmlns="http://www.w3.org/2000/svg" width="256.56" height="54.73" viewBox="0 0 256.56 54.73"><defs><style>.cls-1{fill:#f15b33;}.cls-2{fill:#39455a;}</style></defs><title>frontend-united-logo</title><path class="cls-1" d="M26.86,58.33A27.36,27.36,0,1,1,54.23,31,27.39,27.39,0,0,1,26.86,58.33Zm0-50.42A23.06,23.06,0,1,0,49.92,31,23.09,23.09,0,0,0,26.86,7.91Z" transform="translate(0.5 -3.61)"/><path class="cls-1" d="M18.54,16.87H39v7.18H26.39v5.52H38.11v7.18H26.39v9.52H18.54Z" transform="translate(0.5 -3.61)"/><path class="cls-2" d="M77.29,6.31H92.75v4.93h-10v5h9.35v4.93H82.71v7.73H77.29Z" transform="translate(0.5 -3.61)"/><path class="cls-2" d="M96.79,28.91V6.31H107.9c4.49,0,7.35,3,7.35,7.49,0,3.07-1,5.66-3.07,7.14a10.22,10.22,0,0,1,1.45,2.45l2.31,5.52h-5.83l-1.52-4c-.52-1.24-1.21-2.42-2.45-2.66h-3.93v6.66Zm5.42-17.67v6H107c1.83,0,2.73-1.31,2.73-3.14a2.57,2.57,0,0,0-2.73-2.9Z" transform="translate(0.5 -3.61)"/><path class="cls-2" d="M118.43,17.63c0-6.83,4.42-11.77,11.25-11.77S141,10.8,141,17.63s-4.45,11.73-11.28,11.73S118.43,24.43,118.43,17.63Zm17,0c0-3.69-2-6.66-5.73-6.66s-5.69,3-5.69,6.66,2,6.63,5.69,6.63S135.41,21.32,135.41,17.63Z" transform="translate(0.5 -3.61)"/><path class="cls-2" d="M144.83,6.31h5.42L159,20.22V6.31h5.42v22.6H159L150.25,15V28.91h-5.42Z" transform="translate(0.5 -3.61)"/><path class="cls-2" d="M167.85,6.31h19.22v4.93h-6.87V28.91h-5.42V11.25h-6.94Z" transform="translate(0.5 -3.61)"/><path class="cls-2" d="M190.49,6.31h16.32v4.93H195.91v3.9h10.22v4.93H195.91V24h11v4.93H190.49Z" transform="translate(0.5 -3.61)"/><path class="cls-2" d="M211.2,6.31h5.42l8.8,13.91V6.31h5.42v22.6h-5.42L216.62,15V28.91H211.2Z" transform="translate(0.5 -3.61)"/><path class="cls-2" d="M235.8,6.31h9c6.69,0,11.28,4.59,11.28,11.28s-4.62,11.32-11.32,11.32H235.8Zm5.42,4.93V24h3.52c3.59,0,5.76-2.76,5.76-6.38s-2.14-6.35-5.73-6.35Z" transform="translate(0.5 -3.61)"/><path class="cls-2" d="M80.78,34.79V49c0,4.14,3,5.9,6.25,5.9s5.9-1.86,5.9-5.9V34.79H96V49.25c0,5.76-4,8.59-9,8.59s-9.32-2.73-9.32-8.59V34.79Z" transform="translate(0.5 -3.61)"/><path class="cls-2" d="M102,34.79h3.07L117.39,52.7V34.79h3.07v22.6h-3.07L105.11,39.51V57.39H102Z" transform="translate(0.5 -3.61)"/><path class="cls-2" d="M126.75,34.79h3.07v22.6h-3.07Z" transform="translate(0.5 -3.61)"/><path class="cls-2" d="M133.89,34.79h18.64v2.83H144.8V57.39h-3.07V37.62h-7.83Z" transform="translate(0.5 -3.61)"/><path class="cls-2" d="M156.6,34.79h15.46v2.83H159.67v6.9h11.7v2.8h-11.7v7.25h12.49v2.83H156.6Z" transform="translate(0.5 -3.61)"/><path class="cls-2" d="M177.38,34.79h8.42c6.66,0,11,4.59,11,11.28s-4.45,11.32-11.22,11.32h-8.21Zm3.07,2.83V54.56h5.14c5,0,8-3.55,8-8.49s-2.93-8.45-7.83-8.45Z" transform="translate(0.5 -3.61)"/><rect class="cls-2" x="62.52" y="2.77" width="4.3" height="49.19"/></svg>