<svg id="Layer_1" data-name="Layer 1" xmlns="http://www.w3.org/2000/svg" viewBox="0 0 330.26 330.34"><defs><style>.cls-1,.cls-4{fill:#d7eff9;}.cls-1{opacity:0.3;}.cls-2,.cls-8{fill:#ebf7fc;}.cls-17,.cls-2,.cls-3{opacity:0.5;}.cls-3,.cls-9{fill:#ccebf7;}.cls-5{fill:#abdef2;}.cls-6{fill:#a1d9f1;}.cls-17,.cls-7{fill:#d0ecf8;}.cls-10{fill:#d5eef9;}.cls-11{fill:#e2f3fb;}.cls-12{fill:#bfe5f5;}.cls-13{fill:#a3dbf1;}.cls-14{fill:#afdff3;}.cls-15{fill:#d2edf8;}.cls-16{fill:#f37858;}.cls-18{fill:#f05a33;}</style></defs><title>pattern</title><polygon class="cls-1" points="49.02 33.57 0 109.03 87.14 169.98 108.93 106.13 49.02 33.57"/><polygon class="cls-2" points="178.39 16.57 157.65 0 168.02 22.1 188.75 38.67 178.39 16.57"/><polygon class="cls-3" points="330.26 276.93 330.26 253.71 303.03 276.93 313.92 300.15 330.26 276.93"/><polygon class="cls-4" points="96.62 121.67 47.6 197.13 134.75 258.08 156.54 194.23 96.62 121.67"/><polygon class="cls-5" points="47.6 197.13 69.39 252.28 145.64 301.62 134.75 258.08 47.6 197.13"/><polygon class="cls-6" points="156.54 194.23 200.11 246.47 145.64 301.62 134.75 258.08 156.54 194.23"/><polygon class="cls-7" points="211 156.5 156.54 194.23 200.11 246.47 216.45 208.74 211 156.5"/><polygon class="cls-8" points="172.88 95.55 156.54 141.99 156.54 194.23 211 156.5 172.88 95.55"/><polygon class="cls-9" points="145.64 95.55 96.62 121.67 156.54 194.23 156.54 141.99 145.64 95.55"/><polygon class="cls-10" points="167.43 66.53 145.64 95.55 156.54 141.99 172.88 95.55 167.43 66.53"/><polygon class="cls-9" points="205.55 86.84 211 156.5 172.88 95.55 167.43 66.53 205.55 86.84"/><polygon class="cls-11" points="254.57 153.6 205.55 86.84 211 156.5 216.45 208.74 254.57 153.6"/><polygon class="cls-12" points="221.89 258.08 200.11 246.47 216.45 208.74 227.34 231.96 221.89 258.08"/><polygon class="cls-7" points="205.55 304.52 145.64 301.62 200.11 246.47 221.89 258.08 205.55 304.52"/><polygon class="cls-13" points="243.68 281.3 205.55 304.52 221.89 258.08 243.68 281.3"/><polygon class="cls-14" points="249.13 249.38 243.68 281.3 221.89 258.08 227.34 231.96 249.13 249.38"/><polygon class="cls-8" points="238.23 226.16 216.45 208.74 227.34 231.96 249.13 249.38 238.23 226.16"/><polygon class="cls-15" points="265.47 202.94 254.57 153.6 216.45 208.74 238.23 226.16 265.47 202.94"/><polygon class="cls-9" points="265.47 226.16 265.47 202.94 238.23 226.16 249.13 249.38 265.47 226.16"/><polygon class="cls-16" points="188.37 273.11 161.59 300.22 149.69 330.35 176.47 303.23 188.37 273.11"/><polygon class="cls-17" points="137.37 48.86 82.9 86.59 126.48 138.83 142.82 101.1 137.37 48.86"/><polygon class="cls-18" points="150.54 269.95 146.49 289.98 163.13 310.78 160.25 283.29 150.54 269.95"/></svg>